# xmcd
#
# Track frame offsets:
#	150
#	8571
#	31147
#	65814
#	86007
#	99723
#	112098
#	128922
#	144086
#	150800
#	167119
#	190981
#	217020
#	242820
#
# Disc length: 3794 seconds
#
# Revision: 0
# Processed by: cddbd v1.5.2PL0 Copyright (c) Steve Scherf et al.
# Submitted via: audiograbber 1.83.01
#
DISCID=ba0ed00e
DTITLE=Andreas Vollenweider - White Winds (Remastered 2006)
DYEAR=1984
DGENRE=New Age
TTITLE0=The White Winds
TTITLE1=Hall Of The Stairs
TTITLE2=The Glass Hall (Choose the Crystal)
TTITLE3=The Woman And The Stone 
TTITLE4=The Stone (Close Up)
TTITLE5=Phases Of The Three Moons
TTITLE6=Flight Feet and Root Hands
TTITLE7=Brothership
TTITLE8=Sisterseed
TTITLE9=Trilogy
TTITLE10=Pace Verde (Maxi Single)
TTITLE11=Flight Feet and Root Hands (Live 1989)
TTITLE12=Hey You! Yes, You ...
TTITLE13=(Data) - Videos: 1. White Winds, 2. Introducing Vox
EXTD=Original Year: 1984\nRemastered: 2006
EXTT0=
EXTT1=
EXTT2=
EXTT3=
EXTT4=
EXTT5=
EXTT6=
EXTT7=
EXTT8=
EXTT9=
EXTT10=
EXTT11=
EXTT12=
EXTT13=
PLAYORDER=
